<svg xmlns="http://www.w3.org/2000/svg" width="100%" height="100%" viewBox="0 0 111 25" fill="none" class="nav-logo"><path d="M40.2983 24.4539V6.82717H44.3039V8.43195H44.3809C45.3909 7.10326 46.7175 6.43892 48.3608 6.43892C50.0726 6.43892 51.4334 7.10326 52.4434 8.43195C53.4705 9.74339 53.984 11.4172 53.984 13.4534C53.984 15.5931 53.4619 17.3014 52.4177 18.5783C51.3735 19.8552 49.987 20.4937 48.2581 20.4937C46.649 20.4937 45.408 19.8984 44.535 18.7077H44.4836V24.4539H40.2983ZM47.1797 17.2324C47.9842 17.2324 48.609 16.9131 49.0541 16.2747C49.5162 15.619 49.7473 14.7303 49.7473 13.6087C49.7473 12.4353 49.5248 11.5121 49.0797 10.8391C48.6347 10.1662 47.9756 9.82966 47.1026 9.82966C46.2296 9.82966 45.5535 10.1834 45.0742 10.8909C44.5949 11.5811 44.3552 12.487 44.3552 13.6087C44.3552 14.6958 44.6034 15.5758 45.0999 16.2488C45.5963 16.9045 46.2895 17.2324 47.1797 17.2324Z" fill="#202020"></path><path d="M81.3459 20.4678C79.2233 20.4678 77.5201 19.8121 76.2363 18.5007C74.9696 17.172 74.3362 15.4809 74.3362 13.4275C74.3362 11.4258 74.961 9.76064 76.2106 8.43195C77.4773 7.10326 79.1035 6.43892 81.0892 6.43892C82.8865 6.43892 84.3843 6.9911 85.5826 8.09547C87.1574 9.54495 87.9277 11.6933 87.8935 14.5405H78.4445C78.5814 15.455 78.8981 16.1711 79.3945 16.6888C79.8909 17.1892 80.5585 17.4394 81.3973 17.4394C82.4757 17.4394 83.2032 16.9994 83.5798 16.1194H87.6624C87.3543 17.3963 86.6182 18.4403 85.4542 19.2513C84.3073 20.0623 82.9379 20.4678 81.3459 20.4678ZM78.4701 12.0298H83.6568C83.5884 11.236 83.323 10.6062 82.8609 10.1403C82.4158 9.67436 81.8509 9.44141 81.1662 9.44141C79.6769 9.44141 78.7783 10.3042 78.4701 12.0298Z" fill="#202020"></path><path fill-rule="evenodd" clip-rule="evenodd" d="M61.5869 5.33759V20.0795H65.7209V16.0158L66.979 14.6699L70.1373 20.0795H74.9902L69.8291 11.7968L74.4509 6.82717H69.6237L65.7209 11.305V1.57281L61.5869 5.33759Z" fill="#202020"></path><path fill-rule="evenodd" clip-rule="evenodd" d="M55.3934 10.654V20.0795H59.5787V6.82717L55.3934 10.654ZM55.3934 1.57281V4.98944H59.5787V1.57281H55.3934Z" fill="#202020"></path><path fill-rule="evenodd" clip-rule="evenodd" d="M31.173 20.5196C28.691 20.5196 26.7139 19.9846 25.2417 18.9148C24.7123 18.5192 24.2758 18.062 23.9322 17.5431L27.5526 14.2558C27.7409 16.0158 28.9392 16.8959 31.1474 16.8959C31.969 16.8959 32.6623 16.7406 33.2272 16.43C33.8092 16.1021 34.1002 15.6103 34.1002 14.9546C34.1002 14.506 33.9205 14.135 33.561 13.8416C33.2015 13.531 32.8335 13.3153 32.4569 13.1945C32.0974 13.0737 31.4041 12.8839 30.3771 12.6251C30.3257 12.6078 30.2915 12.5992 30.2744 12.5992C30.2572 12.5819 30.2316 12.5733 30.1973 12.5733C30.1631 12.5561 30.1289 12.5474 30.0946 12.5474C29.3072 12.3576 28.6567 12.1937 28.1432 12.0556C27.6468 11.9003 27.0733 11.676 26.4229 11.3827C25.7895 11.0721 25.2845 10.7356 24.9079 10.3732C24.5313 10.0108 24.2061 9.53632 23.9322 8.94963C23.6754 8.34567 23.5471 7.6727 23.5471 6.93071C23.5471 5.03258 24.2147 3.60899 25.5498 2.65992C26.9022 1.71086 28.6653 1.23633 30.8393 1.23633C32.9276 1.23633 34.6308 1.71949 35.9489 2.68581C36.5036 3.08724 36.9504 3.56611 37.2895 4.1224L33.638 6.93071C33.5524 6.22322 33.2529 5.67967 32.7393 5.30004C32.2258 4.90316 31.5411 4.70472 30.6852 4.70472C29.8978 4.70472 29.2559 4.86865 28.7594 5.19651C28.2801 5.50711 28.0405 5.92125 28.0405 6.43892C28.0405 7.02561 28.3315 7.45701 28.9135 7.7331C29.4955 7.99193 30.591 8.30254 32.2001 8.66491C33.2101 8.90649 34.0403 9.14807 34.6908 9.38964C35.3412 9.61397 36.0003 9.94183 36.6679 10.3732C37.3526 10.8046 37.8576 11.3654 38.1828 12.0556C38.5251 12.7286 38.6963 13.5396 38.6963 14.4887C38.6963 16.3696 37.9859 17.8449 36.5652 18.9148C35.1615 19.9846 33.3641 20.5196 31.173 20.5196Z" fill="#202020"></path><path fill-rule="evenodd" clip-rule="evenodd" d="M98.7389 16.9476V20.0795H110.223V16.8182H105.774C105.381 16.8182 104.73 16.8268 103.823 16.8441V16.7665L105.158 15.3946L110.139 9.9332V6.82717H102.996L99.3551 10.0626H103.463C103.737 10.0626 104.277 10.054 105.081 10.0367V10.1144L103.951 11.2791L98.7389 16.9476Z" fill="#202020"></path><path fill-rule="evenodd" clip-rule="evenodd" d="M89.2947 6.82717V20.0795H93.48V14.1263C93.48 12.7114 93.8566 11.6847 94.6098 11.0462C95.1672 10.5609 95.931 10.3071 96.8178 10.285L100.886 6.67427C99.5698 6.63816 97.2568 6.6201 96.972 6.6201C95.4656 6.6201 94.2674 7.37936 93.3773 8.89786H93.3002V6.82717H89.2947Z" fill="#202020"></path><path fill-rule="evenodd" clip-rule="evenodd" d="M0.438062 14.9139C0.392331 14.9139 0.346731 14.9144 0.30127 14.9156V3.74683L3.85786 0.628906V9.55786L7.25037 1.3271L10.5272 2.74278L6.93829 11.4499L13.6985 5.02136V9.99101L9.57568 13.9116L18 10.8631L19.1852 14.2963L12.4472 16.7345H19.5889L15.4015 20.3757H5.90806C5.83547 17.3466 3.41426 14.9139 0.438062 14.9139Z" fill="#202020"></path><path d="M16.1189 7.68931L13.6985 5.02136V9.99101L16.1189 7.68931Z" fill="#202020"></path></svg>